<svg width="968" height="504" viewBox="0 0 968 504" fill="none" xmlns="http://www.w3.org/2000/svg">
<rect width="968" height="504" fill="#53C81B"/>
<path fill-rule="evenodd" clip-rule="evenodd" d="M281.677 376.451C350.533 377.611 407.293 322.731 408.452 253.875C409.611 185.018 354.732 128.259 285.875 127.099C217.019 125.94 160.259 180.819 159.1 249.676C157.94 318.533 212.82 375.292 281.677 376.451ZM318.284 252.504L357.953 231.631L340.804 201.859L300.876 225.056L302.25 181.075L268.4 180.505L267.976 224.528L228.808 199.973L211.026 229.157L249.971 251.353L210.306 271.931L227.095 301.697L267.06 278.794L266.009 322.487L299.86 323.057L299.966 279.375L339.091 303.583L357.233 274.405L318.284 252.504Z" fill="#F5F5F5"/>
<path d="M493.219 188.094C493.219 195.656 491.344 201.469 487.594 205.531C483.844 209.594 478.469 211.625 471.469 211.625C464.469 211.625 459.094 209.594 455.344 205.531C451.594 201.469 449.719 195.635 449.719 188.031C449.719 180.427 451.594 174.625 455.344 170.625C459.115 166.604 464.51 164.594 471.531 164.594C478.552 164.594 483.917 166.615 487.625 170.656C491.354 174.698 493.219 180.51 493.219 188.094ZM459.875 188.094C459.875 193.198 460.844 197.042 462.781 199.625C464.719 202.208 467.615 203.5 471.469 203.5C479.198 203.5 483.062 198.365 483.062 188.094C483.062 177.802 479.219 172.656 471.531 172.656C467.677 172.656 464.771 173.958 462.812 176.562C460.854 179.146 459.875 182.99 459.875 188.094Z" fill="white"/>
<path d="M540.125 211H530.469V191.281H512.375V211H502.688V165.312H512.375V183.219H530.469V165.312H540.125V211Z" fill="white"/>
<path d="M587.844 211H578.188V173.375H567L566.5 177.562C565.208 188.208 564.062 195.677 563.062 199.969C562.083 204.24 560.656 207.25 558.781 209C556.927 210.75 554.354 211.625 551.062 211.625C549.312 211.625 547.771 211.396 546.438 210.938V203C547.646 203.417 548.781 203.625 549.844 203.625C550.948 203.625 551.823 203.125 552.469 202.125C553.115 201.104 553.719 199.229 554.281 196.5C554.865 193.75 555.625 189.26 556.562 183.031C557.521 176.781 558.333 170.875 559 165.312H587.844V211Z" fill="white"/>
<path d="M627.344 211L624.031 200.125H607.375L604.062 211H593.625L609.75 165.125H621.594L637.781 211H627.344ZM621.719 192C618.656 182.146 616.927 176.573 616.531 175.281C616.156 173.99 615.885 172.969 615.719 172.219C615.031 174.885 613.062 181.479 609.812 192H621.719Z" fill="white"/>
<path d="M643.562 165.312H652.281V187.375L652.156 193.281L651.844 200H652.031L673.125 165.312H684.719V211H676.094V189.062C676.094 186.125 676.281 181.771 676.656 176H676.406L655.219 211H643.562V165.312ZM679.281 150.469C678.885 154.365 677.417 157.208 674.875 159C672.333 160.771 668.667 161.656 663.875 161.656C658.938 161.656 655.281 160.802 652.906 159.094C650.552 157.385 649.229 154.51 648.938 150.469H657.469C657.615 152.615 658.146 154.125 659.062 155C660 155.854 661.667 156.281 664.062 156.281C666.167 156.281 667.729 155.812 668.75 154.875C669.792 153.917 670.427 152.448 670.656 150.469H679.281Z" fill="white"/>
<path d="M733.688 211H724.031V191.281H705.938V211H696.25V165.312H705.938V183.219H724.031V165.312H733.688V211Z" fill="white"/>
<path d="M480.625 229.312V237.312H461.438V275H451.75V229.312H480.625Z" fill="white"/>
<path d="M514 275H487.688V229.312H514V237.25H497.375V247.281H512.844V255.219H497.375V267H514V275Z" fill="white"/>
<path d="M561 275H551.344V255.281H533.25V275H523.562V229.312H533.25V247.219H551.344V229.312H561V275Z" fill="white"/>
<path d="M598.875 275H572.562V229.312H598.875V237.25H582.25V247.281H597.719V255.219H582.25V267H598.875V275Z" fill="white"/>
<path d="M618.125 250.812H621.312C624.292 250.812 626.521 250.229 628 249.062C629.479 247.875 630.219 246.156 630.219 243.906C630.219 241.635 629.594 239.958 628.344 238.875C627.115 237.792 625.177 237.25 622.531 237.25H618.125V250.812ZM640 243.562C640 248.479 638.458 252.24 635.375 254.844C632.312 257.448 627.948 258.75 622.281 258.75H618.125V275H608.438V229.312H623.031C628.573 229.312 632.781 230.51 635.656 232.906C638.552 235.281 640 238.833 640 243.562Z" fill="white"/>
<path d="M675.031 275L671.719 264.125H655.062L651.75 275H641.312L657.438 229.125H669.281L685.469 275H675.031ZM669.406 256C666.344 246.146 664.615 240.573 664.219 239.281C663.844 237.99 663.573 236.969 663.406 236.219C662.719 238.885 660.75 245.479 657.5 256H669.406Z" fill="white"/>
<path d="M706.688 275H697V237.375H684.594V229.312H719.094V237.375H706.688V275Z" fill="white"/>
<path d="M766.969 252.094C766.969 259.656 765.094 265.469 761.344 269.531C757.594 273.594 752.219 275.625 745.219 275.625C738.219 275.625 732.844 273.594 729.094 269.531C725.344 265.469 723.469 259.635 723.469 252.031C723.469 244.427 725.344 238.625 729.094 234.625C732.865 230.604 738.26 228.594 745.281 228.594C752.302 228.594 757.667 230.615 761.375 234.656C765.104 238.698 766.969 244.51 766.969 252.094ZM733.625 252.094C733.625 257.198 734.594 261.042 736.531 263.625C738.469 266.208 741.365 267.5 745.219 267.5C752.948 267.5 756.812 262.365 756.812 252.094C756.812 241.802 752.969 236.656 745.281 236.656C741.427 236.656 738.521 237.958 736.562 240.562C734.604 243.146 733.625 246.99 733.625 252.094Z" fill="white"/>
<path d="M786.125 250.812H789.312C792.292 250.812 794.521 250.229 796 249.062C797.479 247.875 798.219 246.156 798.219 243.906C798.219 241.635 797.594 239.958 796.344 238.875C795.115 237.792 793.177 237.25 790.531 237.25H786.125V250.812ZM808 243.562C808 248.479 806.458 252.24 803.375 254.844C800.312 257.448 795.948 258.75 790.281 258.75H786.125V275H776.438V229.312H791.031C796.573 229.312 800.781 230.51 803.656 232.906C806.552 235.281 808 238.833 808 243.562Z" fill="white"/>
<path d="M487.906 339H478.25V301.375H461.438V339H451.75V293.312H487.906V339Z" fill="white"/>
<path d="M527.406 339L524.094 328.125H507.438L504.125 339H493.688L509.812 293.125H521.656L537.844 339H527.406ZM521.781 320C518.719 310.146 516.99 304.573 516.594 303.281C516.219 301.99 515.948 300.969 515.781 300.219C515.094 302.885 513.125 309.479 509.875 320H521.781Z" fill="white"/>
<path d="M553.312 314.812H556.5C559.479 314.812 561.708 314.229 563.188 313.062C564.667 311.875 565.406 310.156 565.406 307.906C565.406 305.635 564.781 303.958 563.531 302.875C562.302 301.792 560.365 301.25 557.719 301.25H553.312V314.812ZM575.188 307.562C575.188 312.479 573.646 316.24 570.562 318.844C567.5 321.448 563.135 322.75 557.469 322.75H553.312V339H543.625V293.312H558.219C563.76 293.312 567.969 294.51 570.844 296.906C573.74 299.281 575.188 302.833 575.188 307.562Z" fill="white"/>
<path d="M625.281 316.094C625.281 323.656 623.406 329.469 619.656 333.531C615.906 337.594 610.531 339.625 603.531 339.625C596.531 339.625 591.156 337.594 587.406 333.531C583.656 329.469 581.781 323.635 581.781 316.031C581.781 308.427 583.656 302.625 587.406 298.625C591.177 294.604 596.573 292.594 603.594 292.594C610.615 292.594 615.979 294.615 619.688 298.656C623.417 302.698 625.281 308.51 625.281 316.094ZM591.938 316.094C591.938 321.198 592.906 325.042 594.844 327.625C596.781 330.208 599.677 331.5 603.531 331.5C611.26 331.5 615.125 326.365 615.125 316.094C615.125 305.802 611.281 300.656 603.594 300.656C599.74 300.656 596.833 301.958 594.875 304.562C592.917 307.146 591.938 310.99 591.938 316.094Z" fill="white"/>
<path d="M670.281 339H660.625V301.375H649.438L648.938 305.562C647.646 316.208 646.5 323.677 645.5 327.969C644.521 332.24 643.094 335.25 641.219 337C639.365 338.75 636.792 339.625 633.5 339.625C631.75 339.625 630.208 339.396 628.875 338.938V331C630.083 331.417 631.219 331.625 632.281 331.625C633.385 331.625 634.26 331.125 634.906 330.125C635.552 329.104 636.156 327.229 636.719 324.5C637.302 321.75 638.062 317.26 639 311.031C639.958 304.781 640.771 298.875 641.438 293.312H670.281V339Z" fill="white"/>
<path d="M708.125 339H681.812V293.312H708.125V301.25H691.5V311.281H706.969V319.219H691.5V331H708.125V339Z" fill="white"/>
<path d="M717.688 293.312H726.406V315.375L726.281 321.281L725.969 328H726.156L747.25 293.312H758.844V339H750.219V317.062C750.219 314.125 750.406 309.771 750.781 304H750.531L729.344 339H717.688V293.312ZM753.406 278.469C753.01 282.365 751.542 285.208 749 287C746.458 288.771 742.792 289.656 738 289.656C733.062 289.656 729.406 288.802 727.031 287.094C724.677 285.385 723.354 282.51 723.062 278.469H731.594C731.74 280.615 732.271 282.125 733.188 283C734.125 283.854 735.792 284.281 738.188 284.281C740.292 284.281 741.854 283.812 742.875 282.875C743.917 281.917 744.552 280.448 744.781 278.469H753.406Z" fill="white"/>
</svg>
